<?xml version="1.0" encoding="UTF-8"?>
<svg viewBox="0 0 744.09447 1052.362179" xmlns="http://www.w3.org/2000/svg">
 <path transform="matrix(.80662 0 0 .80662 133.19 123.15)" d="m291.34-65.688c-10.868 0.53434-20.712 6.5473-26.156 15.969l-405.62 702.62c-5.7255 9.9109-5.7205 22.117 0 32.031s16.273 16.028 27.719 16.031l807.88 0.15625c11.419-0.00636 21.96-6.09 27.688-15.969s5.7621-22.056 0.09375-31.969l-402.25-702.78c-5.9823-10.459-17.309-16.677-29.344-16.094z" fill="none" stroke="#000" stroke-linecap="round" stroke-width="12.5"/>
 <path transform="matrix(.80662 0 0 .80662 133.19 123.15)" d="m292.91-32.375c-134.83 233.55-269.67 467.1-404.5 700.66l805.62 0.15625-401.12-700.81z" fill="#fc0" fill-rule="evenodd" stroke="#000" stroke-linecap="round" stroke-linejoin="round" stroke-width="29.444"/>
 <g transform="matrix(.47827 0 0 .47827 167.37 150.83)">
  <path d="m319.38 900h155.42m140.49-16.673c0 36.478-29.605 66.083-66.083 66.083s-66.083-29.605-66.083-66.083 29.605-66.083 66.083-66.083 66.083 29.605 66.083 66.083zm-309.53 16.673c0 27.383-22.224 49.606-49.606 49.606s-49.606-22.224-49.606-49.606 22.224-49.606 49.606-49.606 49.606 22.224 49.606 49.606zm-103.8 1.0433h-70.866m577.56-231.36h-364.96m269.29 230.31h95.669v-230.31m-145.28-290.55v283.46m0.18034-282.05-237.58-1.4128-120.47 428.74h-53.15m109.89-463.04-141.78 583.51-113.39-31.89m419.21-224.64-15.278 65.192h-180.71" fill="none" stroke="#000" stroke-linecap="round" stroke-linejoin="round" stroke-width="25"/>
  <path d="m462.41 403.94c-18.581 0-33.656 15.075-33.656 33.656 0 14.04 8.6192 26.078 20.844 31.125-1.7457 9.5095-5.3986 24.775-13.625 39.656-12.806 23.165-31.126 42.562-75.531 36.438-10.26-1.4152-19.741 5.7396-21.156 16s5.7708 19.741 16.031 21.156c23.894 3.2958 44.264-0.16763 61.25-7.5 16.412 6.17 25.249 12.891 29.312 17.875 4.183 5.1307 4.4994 8.2477 4.0938 12s-2.528 8.2443-5.1562 11.562c-1.6608 2.0968-3.9415 3.3713-4.4375 3.8125-7.5898 1.2842-30.825 3.9865-52 6.0625-22.465 2.2025-42.75 3.9688-42.75 3.9688-6.8308 0.37682-12.916 4.457-15.875 10.625-1.7994 3.7502-2.1146 7.8728-1.3125 11.812 0.03825 1.448 0.24439 2.9146 0.625 4.3438 2.4287 9.7148 2.0845 27.094 0.4375 41.094s-4.0625 24.531-4.0625 24.531c-1.6902 6.5933 0.30968 13.599 5.25 18.281s12.038 6.2914 18.531 4.25 11.378-7.427 12.75-14.094c0 0 2.885-12.475 4.7812-28.594 1.2953-11.01 2.2384-23.775 1.3125-36.688 8.1012-0.73087 11.355-0.9821 23.969-2.2188 15.662-1.5355 31.437-3.1113 43.781-4.7188v7.7812h70.875v-7.0312l4 1.0312c18.459-71.988 13.647-125.46 3.4688-161.16-6.5817-23.082-15.604-38.511-21.406-47.125 2.0552-4.3526 3.3125-9.1513 3.3125-14.281 0-18.581-15.075-33.656-33.656-33.656z" opacity=".96667"/>
 </g>
</svg>
