<?xml version="1.0" standalone="no"?>
<!DOCTYPE svg PUBLIC "-//W3C//DTD SVG 20010904//EN"
 "http://www.w3.org/TR/2001/REC-SVG-20010904/DTD/svg10.dtd">
<svg version="1.0" xmlns="http://www.w3.org/2000/svg"
 width="1585.000000pt" height="1617.000000pt" viewBox="0 0 1585.000000 1617.000000"
 preserveAspectRatio="xMidYMid meet">

<g transform="translate(0.000000,1617.000000) scale(0.100000,-0.100000)"
fill="#000000" stroke="none">
<path d="M7620 16164 c-1047 -59 -1961 -277 -2855 -680 l-140 -63 3315 0 3315
0 -75 35 c-201 95 -412 180 -670 270 -650 228 -1271 361 -1969 420 -166 14
-779 26 -921 18z"/>
<path d="M3170 14539 c-194 -147 -538 -439 -687 -584 l-148 -144 4356 -1 4356
0 167 80 c497 239 1094 450 1113 395 2 -6 -146 -193 -328 -415 -375 -459 -405
-498 -454 -602 -102 -214 -77 -389 77 -542 59 -58 95 -83 183 -128 302 -152
762 -237 1410 -260 272 -9 373 -8 670 6 371 18 739 47 751 58 15 16 -308 487
-499 726 -433 543 -871 977 -1402 1391 l-130 101 -4665 -1 -4665 0 -105 -80z"/>
<path d="M1573 12903 c-146 -201 -453 -673 -453 -697 0 -3 1753 -6 3896 -6
l3896 0 -213 -218 c-118 -120 -290 -302 -384 -405 l-169 -187 -3724 0 -3723 0
-24 -55 c-77 -174 -275 -704 -275 -736 0 -5 1166 -9 2934 -9 l2935 0 93 58
c342 215 871 465 1298 613 208 72 427 117 444 91 2 -4 -61 -84 -141 -177 -148
-173 -397 -481 -515 -636 -294 -387 -215 -705 233 -934 273 -140 793 -265
1349 -325 408 -43 646 -53 1260 -53 723 0 799 3 2550 103 1346 77 1861 95
2496 88 l432 -5 -5 31 c-43 314 -160 799 -294 1221 -63 198 -147 415 -163 421
-7 3 -237 -18 -512 -45 -1279 -129 -1731 -160 -2397 -168 -612 -7 -877 8
-1277 72 -171 28 -466 98 -610 145 -347 113 -705 314 -913 511 -198 186 -277
345 -277 552 0 242 122 467 418 775 l79 82 -4082 0 -4083 0 -79 -107z"/>
<path d="M176 9763 c-14 -47 -77 -417 -95 -568 -12 -93 -24 -182 -26 -197 l-4
-28 2165 0 2166 0 -134 -142 c-315 -336 -612 -678 -899 -1038 -188 -235 -218
-277 -258 -358 -48 -96 -64 -172 -58 -275 7 -123 51 -212 157 -317 100 -99
217 -170 408 -246 749 -300 1824 -460 3917 -584 94 -5 247 -15 340 -20 94 -6
298 -17 455 -25 315 -16 850 -46 1265 -70 1676 -97 2936 -243 3845 -446 673
-150 1259 -351 1677 -575 56 -30 104 -51 106 -47 3 4 37 87 75 183 233 584
391 1134 481 1675 37 224 83 570 79 598 -4 26 -77 51 -358 122 -877 219 -1847
290 -3650 265 -2239 -30 -2358 -31 -2730 -20 -1025 28 -1677 102 -2265 255
-474 123 -836 289 -1170 536 -199 147 -338 303 -420 472 -57 118 -75 196 -75
327 0 161 45 313 135 459 25 40 45 75 45 77 0 2 -1163 4 -2584 4 -2453 0
-2585 -1 -2590 -17z"/>
<path d="M4 8143 c-11 -44 12 -575 32 -735 l6 -48 757 0 758 0 57 45 c267 207
737 475 1176 670 107 48 197 89 199 91 2 2 -667 4 -1487 4 l-1492 0 -6 -27z"/>
<path d="M155 6518 c131 -650 319 -1238 579 -1811 673 -1484 1791 -2745 3166
-3570 1095 -656 2243 -1018 3520 -1109 392 -28 1035 -13 1395 33 395 49 924
153 1184 232 l44 14 23 94 c76 309 107 547 107 834 1 238 -14 381 -59 580
-148 657 -585 1215 -1271 1626 -583 350 -1246 607 -2038 793 -624 147 -1045
212 -2433 381 -1029 124 -1553 223 -2042 385 -310 102 -568 225 -810 384 -337
222 -540 456 -622 716 -19 63 -23 96 -23 205 1 89 6 148 17 188 l16 57 -380 0
-380 0 7 -32z"/>
</g>
</svg>
